<svg width="213" height="62" viewBox="0 0 213 62" fill="none" xmlns="http://www.w3.org/2000/svg">
<path d="M171.777 9.10495V14.4161H185.194V44.549H191.744V14.4161H205.266V9.10495H171.777ZM160.79 23.6294H142.831V9.10495H136.281V44.549H142.831V28.9406H160.79V44.549H167.34V9.10495H160.79V23.6294ZM109.236 38.8043C108.919 38.5875 108.708 37.9371 108.708 37.3952V29.049H129.203V23.8462H108.813V16.6924C108.813 16.1504 108.813 15.5001 109.342 14.9581C109.87 14.5245 110.504 14.4161 111.138 14.4161H129.731V9.10495H107.546C106.278 9.10495 104.588 9.21334 103.426 10.514C102.686 11.3812 102.263 12.7903 102.263 14.1994V39.3462C102.263 40.7553 102.369 42.3812 103.531 43.4651C104.693 44.549 105.961 44.549 107.44 44.549H129.942V39.2378H111.455C110.398 39.2378 109.659 39.2378 109.236 38.8043ZM64.3372 14.4161H77.8597V44.549H84.4096V14.4161H97.9321V9.10495H64.3372V14.4161ZM12.0434 30.8917L17.7482 16.4756C17.9595 15.9336 18.2764 14.9581 18.699 14.9581C19.1216 14.9581 19.5442 15.9336 19.6498 16.4756L25.3546 30.8917H12.0434ZM18.699 8.67139C15.6353 8.67139 14.262 9.64691 12.9942 12.6819L0 44.549H6.86687L10.3531 35.5525H26.9392L30.5311 44.549H37.398L24.4038 12.6819C23.1361 9.7553 21.657 8.67139 18.699 8.67139Z" fill="#132E4A"/>
<path d="M190.159 52.4614V58.2062C190.159 58.6397 190.159 59.3985 189.737 59.832C189.314 60.374 188.469 60.4824 187.941 60.4824C187.412 60.4824 186.673 60.374 186.145 59.832C185.722 59.3985 185.722 58.7481 185.722 58.2062V52.4614H184.032V58.5313C184.032 59.2901 184.137 60.1572 184.771 60.916C185.722 61.8915 187.095 61.8915 187.941 61.8915C188.786 61.8915 190.159 61.8915 191.11 60.916C191.744 60.1572 191.849 59.2901 191.849 58.5313V52.5698H190.159V52.4614ZM170.192 58.423H171.354C172.411 58.423 172.834 57.881 173.045 57.4474C173.362 56.7971 173.467 56.0383 173.467 55.388C173.467 54.7376 173.467 53.9789 173.045 53.3286C172.517 52.5698 171.777 52.4614 171.143 52.4614H166.917C166.601 52.4614 166.178 52.4614 165.861 52.7866C165.544 53.1118 165.438 53.6537 165.438 53.9789V61.7831H167.129V54.6293C167.129 54.4125 167.129 54.3041 167.34 54.0873C167.446 53.9789 167.657 53.9789 167.763 53.9789H170.509C170.826 53.9789 171.249 53.9789 171.46 54.3041C171.671 54.5209 171.777 54.846 171.777 55.6048C171.777 55.9299 171.777 56.5803 171.566 56.9055C171.354 57.2306 170.932 57.339 170.615 57.339H168.925C168.396 57.339 168.185 57.5558 168.185 57.9894V58.2062C168.185 58.423 168.396 58.8565 168.608 58.9649L171.566 61.9999H173.679L170.192 58.423ZM152.867 61.7831H154.451V60.0488H152.867V61.7831ZM134.273 53.8705H137.76V61.7831H139.45V53.9789H142.936V52.5698H134.168V53.8705H134.273ZM122.653 59.2901C122.653 59.3985 122.653 59.5069 122.547 59.5069C122.441 59.5069 122.441 59.3985 122.336 59.2901L118.532 53.1118C118.321 52.6782 117.899 52.353 117.159 52.353C116.314 52.353 115.786 52.7866 115.786 53.6537V61.7831H117.476V55.0628C117.476 54.846 117.582 54.846 117.687 54.846C117.687 54.846 117.793 54.846 117.899 55.0628L121.702 61.2411C122.124 61.8915 122.653 61.9999 123.181 61.9999C123.92 61.9999 124.554 61.6747 124.554 60.6992V52.6782H122.97V59.2901H122.653ZM99.8335 60.2656C99.7278 60.1572 99.7278 60.0488 99.7278 59.9404V57.7726H105.01V56.3635H99.7278V54.5209C99.7278 54.4125 99.7278 54.1957 99.8335 54.0873C99.9391 53.9789 100.15 53.9789 100.256 53.9789H105.116V52.5698H99.3053C98.9883 52.5698 98.5657 52.5698 98.2488 52.895C98.0375 53.1118 97.9319 53.4369 97.9319 53.8705V60.374C97.9319 60.6992 97.9319 61.1327 98.2488 61.4579C98.5657 61.7831 98.8827 61.7831 99.3053 61.7831H105.116V60.374H100.362C100.15 60.374 99.9391 60.374 99.8335 60.2656ZM79.3385 53.8705H82.8248V61.7831H84.5151V53.9789H88.0013V52.5698H79.2329V53.8705H79.3385ZM67.8233 61.7831H69.408V60.0488H67.8233V61.7831ZM54.6178 59.6153C54.5122 59.832 54.5122 59.9404 54.4065 59.9404C54.3009 59.9404 54.1952 59.832 54.1952 59.7237L52.5049 53.4369C52.3993 53.0034 52.188 52.4614 51.2372 52.4614C50.2864 52.4614 50.0751 53.1118 49.9695 53.4369L48.3848 59.6153C48.3848 59.7237 48.2792 59.832 48.1735 59.832C48.0679 59.832 47.9622 59.6153 47.9622 59.5069L46.1663 52.353H44.476L46.5889 60.374C46.9058 61.3495 47.3284 61.6747 48.0679 61.6747C49.1243 61.6747 49.3356 61.0244 49.4412 60.4824L51.0259 54.5209C51.0259 54.4125 51.1316 54.3041 51.2372 54.3041C51.3428 54.3041 51.3428 54.4125 51.4485 54.5209L53.0331 60.4824C53.2444 61.1327 53.4557 61.6747 54.5122 61.6747C55.5686 61.6747 55.7799 61.0244 55.9912 60.374L58.2097 52.353H56.5194L54.6178 59.6153ZM32.4326 59.6153C32.3269 59.832 32.3269 59.9404 32.2213 59.9404C32.1156 59.9404 32.01 59.832 32.01 59.7237L30.3197 53.4369C30.214 53.0034 30.0027 52.4614 29.0519 52.4614C28.1011 52.4614 27.8899 53.1118 27.7842 53.4369L26.1996 59.6153C26.1996 59.7237 26.0939 59.832 25.9883 59.832C25.8826 59.832 25.777 59.6153 25.777 59.5069L23.981 52.353H22.2907L24.4036 60.374C24.7205 61.3495 25.1431 61.6747 25.8826 61.6747C26.9391 61.6747 27.1504 61.0244 27.3616 60.4824L28.9463 54.5209C28.9463 54.4125 29.0519 54.3041 29.1576 54.3041C29.2632 54.3041 29.2632 54.4125 29.3689 54.5209L30.9535 60.4824C31.1648 61.1327 31.3761 61.6747 32.4326 61.6747C33.489 61.6747 33.7003 61.0244 33.9116 60.374L36.1301 52.353H34.4398L32.4326 59.6153ZM10.2473 59.6153C10.2473 59.832 10.1417 59.9404 10.036 59.9404C9.93037 59.9404 9.82472 59.832 9.82472 59.7237L8.13442 53.4369C8.02877 53.0034 7.81749 52.4614 6.86669 52.4614C5.91589 52.4614 5.7046 53.1118 5.59896 53.4369L4.0143 59.6153C4.0143 59.7237 3.90866 59.832 3.80301 59.832C3.69737 59.832 3.59172 59.6153 3.59172 59.5069L1.79577 52.353H0.105469L2.21835 60.374C2.53528 61.3495 2.95786 61.6747 3.69737 61.6747C4.75381 61.6747 4.9651 61.0244 5.07074 60.4824L6.6554 54.5209C6.6554 54.4125 6.76105 54.3041 6.86669 54.3041C6.97233 54.3041 6.97233 54.4125 7.07798 54.5209L8.66264 60.6992C8.87393 61.3495 9.08521 61.8915 10.1417 61.8915C11.1981 61.8915 11.4094 61.2411 11.6207 60.5908L13.8392 52.5698H12.1489L10.2473 59.6153Z" fill="#00AFEF"/>
<path d="M60.5338 33.4931L53.2444 26.1224C52.9275 25.7973 52.5049 25.3637 51.871 25.3637C51.2372 25.3637 50.8146 25.6889 50.4977 26.1224L43.1026 33.4931L40.1445 30.0245L49.0186 21.4616C49.7581 20.8112 50.4977 20.2693 51.6597 20.2693C52.8218 20.2693 53.5613 20.7029 54.3008 21.4616L63.1749 30.0245L60.5338 33.4931Z" fill="#00AFEF"/>
<path d="M208.857 0.541958C207.273 0.541958 205.899 1.84266 205.899 3.46853C205.899 5.09441 207.167 6.39511 208.857 6.39511C210.442 6.39511 211.815 5.09441 211.815 3.46853C211.815 1.84266 210.442 0.541958 208.857 0.541958ZM208.857 6.93706C206.956 6.93706 205.371 5.41958 205.371 3.46853C205.371 1.51748 206.956 0 208.857 0C210.759 0 212.344 1.51748 212.344 3.46853C212.344 5.31119 210.759 6.93706 208.857 6.93706Z" fill="#132E4A"/>
<path d="M209.492 2.38469C209.492 2.2763 209.492 2.16791 209.386 2.05952C209.386 1.95112 209.281 1.84273 209.175 1.84273C209.069 1.84273 208.964 1.73434 208.858 1.73434C208.752 1.73434 208.647 1.73434 208.435 1.73434H207.907V3.36022H208.435C208.647 3.36022 208.752 3.36022 208.858 3.36022C208.964 3.36022 209.175 3.14343 209.175 3.14343C209.281 3.03504 209.386 2.81826 209.386 2.81826C209.386 2.81826 209.492 2.60147 209.492 2.38469ZM210.76 5.52805H210.02L208.647 3.79378H208.013V5.52805H207.379V1.19238H208.541C208.752 1.19238 208.964 1.19238 209.175 1.19238C209.386 1.19238 209.492 1.30077 209.703 1.40917C209.809 1.51756 210.02 1.62595 210.02 1.73434C210.126 1.84273 210.126 2.05952 210.126 2.2763C210.126 2.60147 210.02 2.81826 209.914 3.03504C209.703 3.25182 209.492 3.36022 209.281 3.46861L210.76 5.52805Z" fill="#132E4A"/>
</svg>
