<svg width="18" height="18" viewBox="0 0 18 18" fill="none" xmlns="http://www.w3.org/2000/svg">
<path fill-rule="evenodd" clip-rule="evenodd" d="M15.7663 1.99998H2.23294C2.17106 1.99998 2.11171 2.02456 2.06795 2.06832C2.02419 2.11208 1.99961 2.17142 1.99961 2.23331V15.7666C1.99961 15.8954 2.10414 16 2.23294 16H2.41028L11.5784 6.83184C11.7301 6.68016 11.9101 6.55983 12.1083 6.47774C12.3065 6.39564 12.5189 6.35339 12.7334 6.35339C12.9479 6.35339 13.1603 6.39564 13.3585 6.47774C13.5567 6.55983 13.7367 6.68016 13.8884 6.83184L15.9996 8.94304V2.23331C15.9996 2.17142 15.975 2.11208 15.9313 2.06832C15.8875 2.02456 15.8282 1.99998 15.7663 1.99998V1.99998ZM15.9996 10.9226L12.8981 7.82118C12.8765 7.79945 12.8507 7.78221 12.8224 7.77044C12.794 7.75868 12.7636 7.75262 12.7329 7.75262C12.7023 7.75262 12.6719 7.75868 12.6435 7.77044C12.6152 7.78221 12.5894 7.79945 12.5677 7.82118L4.38988 16H15.7663C15.8282 16 15.8875 15.9754 15.9313 15.9316C15.975 15.8879 15.9996 15.8285 15.9996 15.7666V10.9226V10.9226ZM2.23294 0.599976C1.79976 0.599976 1.38431 0.772059 1.078 1.07837C0.771692 1.38468 0.599609 1.80012 0.599609 2.23331V15.7666C0.599609 16.6682 1.33134 17.4 2.23294 17.4H15.7663C16.1995 17.4 16.6149 17.2279 16.9212 16.9216C17.2275 16.6153 17.3996 16.1998 17.3996 15.7666V2.23331C17.3996 1.80012 17.2275 1.38468 16.9212 1.07837C16.6149 0.772059 16.1995 0.599976 15.7663 0.599976H2.23294ZM5.73294 6.66664C5.98048 6.66664 6.21787 6.56831 6.39291 6.39327C6.56794 6.21824 6.66628 5.98084 6.66628 5.73331C6.66628 5.48577 6.56794 5.24838 6.39291 5.07334C6.21787 4.89831 5.98048 4.79998 5.73294 4.79998C5.48541 4.79998 5.24801 4.89831 5.07298 5.07334C4.89794 5.24838 4.79961 5.48577 4.79961 5.73331C4.79961 5.98084 4.89794 6.21824 5.07298 6.39327C5.24801 6.56831 5.48541 6.66664 5.73294 6.66664V6.66664ZM5.73294 8.06664C6.35178 8.06664 6.94527 7.82081 7.38286 7.38322C7.82044 6.94564 8.06628 6.35215 8.06628 5.73331C8.06628 5.11447 7.82044 4.52098 7.38286 4.08339C6.94527 3.64581 6.35178 3.39998 5.73294 3.39998C5.1141 3.39998 4.52061 3.64581 4.08303 4.08339C3.64544 4.52098 3.39961 5.11447 3.39961 5.73331C3.39961 6.35215 3.64544 6.94564 4.08303 7.38322C4.52061 7.82081 5.1141 8.06664 5.73294 8.06664V8.06664Z" fill="#5C4DD8"/>
</svg>
