<svg width="22" height="22" viewBox="0 0 22 22" fill="none" xmlns="http://www.w3.org/2000/svg">
<path d="M7.4002 1.64001C8.11221 1.64001 8.80823 1.85115 9.40025 2.24672C9.99226 2.64229 10.4537 3.20454 10.7262 3.86235C10.9986 4.52017 11.0699 5.24401 10.931 5.94234C10.7921 6.64067 10.4492 7.28213 9.94578 7.7856C9.44231 8.28907 8.80085 8.63193 8.10252 8.77084C7.40419 8.90975 6.68035 8.83845 6.02253 8.56598C5.36472 8.2935 4.80248 7.83208 4.4069 7.24006C4.01133 6.64805 3.8002 5.95202 3.8002 5.24001C3.8002 4.28523 4.17948 3.36956 4.85461 2.69443C5.52974 2.0193 6.44542 1.64001 7.4002 1.64001M7.4002 0.200012C6.40338 0.200012 5.42895 0.495603 4.60012 1.04941C3.7713 1.60321 3.12531 2.39035 2.74384 3.31129C2.36238 4.23223 2.26257 5.2456 2.45704 6.22327C2.65151 7.20093 3.13152 8.09897 3.83638 8.80383C4.54123 9.50869 5.43928 9.9887 6.41694 10.1832C7.3946 10.3776 8.40798 10.2778 9.32892 9.89636C10.2499 9.5149 11.037 8.86891 11.5908 8.04009C12.1446 7.21126 12.4402 6.23683 12.4402 5.24001C12.4402 3.90332 11.9092 2.62138 10.964 1.67619C10.0188 0.731011 8.73689 0.200012 7.4002 0.200012V0.200012ZM14.6002 21.8H13.1602V18.2C13.1602 17.2452 12.7809 16.3296 12.1058 15.6544C11.4306 14.9793 10.515 14.6 9.56019 14.6H5.2402C4.28542 14.6 3.36974 14.9793 2.69461 15.6544C2.01948 16.3296 1.6402 17.2452 1.6402 18.2V21.8H0.200195V18.2C0.200195 16.8633 0.731194 15.5814 1.67638 14.6362C2.62156 13.691 3.9035 13.16 5.2402 13.16H9.56019C10.8969 13.16 12.1788 13.691 13.124 14.6362C14.0692 15.5814 14.6002 16.8633 14.6002 18.2V21.8ZM14.6002 3.08001H21.8002V4.52001H14.6002V3.08001ZM14.6002 6.68001H21.8002V8.12001H14.6002V6.68001ZM14.6002 10.28H19.6402V11.72H14.6002V10.28Z" fill="#5C4DD8"/>
</svg>
