<svg width="23" height="22" viewBox="0 0 23 22" fill="none" xmlns="http://www.w3.org/2000/svg">
<path fill-rule="evenodd" clip-rule="evenodd" d="M8 2C10.0711 2 11.75 3.67893 11.75 5.75C11.75 7.82107 10.0711 9.5 8 9.5C5.92893 9.5 4.25 7.82107 4.25 5.75C4.25236 3.67991 5.92991 2.00236 8 2V2ZM8 0.5C5.10051 0.5 2.75 2.85051 2.75 5.75C2.75 8.64949 5.10051 11 8 11C10.8995 11 13.25 8.64949 13.25 5.75C13.25 2.85051 10.8995 0.5 8 0.5ZM15.5 21.5H14V17.75C13.9976 15.6799 12.3201 14.0024 10.25 14H5.75C3.67994 14.0024 2.00244 15.6799 2 17.75V21.5H0.5V17.75C0.503389 14.8519 2.85191 12.5034 5.75 12.5H10.25C13.1481 12.5034 15.4966 14.8519 15.5 17.75V21.5ZM17.75 11.135L15.8075 9.19252L14.75 10.25L17.75 13.25L23 8.00002L21.9425 6.94252L17.75 11.135V11.135Z" fill="#5C4DD8"/>
</svg>
