<svg width="81" height="77" viewBox="0 0 81 77" fill="none" xmlns="http://www.w3.org/2000/svg">
<path d="M67.8946 41.8219C72.6295 41.8219 76.6033 41.8219 80.9155 41.8219C80.9155 53.6615 80.9155 65.0753 80.9155 76.9149C71.6148 76.9149 62.3142 76.9149 52.7599 76.9149C52.6754 76.1483 52.5908 75.4669 52.5908 74.7854C52.5908 61.8385 52.3372 48.9768 52.6754 36.0299C52.8445 27.8529 54.6201 20.0166 59.3549 13.1173C64.5125 5.62171 71.7839 1.44804 81 0.0852051C81 4.34405 81 8.6029 81 13.1173C68.9938 18.6538 67.5564 29.3861 67.8946 41.8219Z" fill="#5C4DD8"/>
<path d="M28.5782 0C28.5782 4.4292 28.5782 8.68805 28.5782 13.1173C16.4028 18.7389 15.1346 29.4712 15.4728 41.6516C19.7849 41.6516 23.6742 41.6516 27.8173 41.6516C27.8173 53.6615 27.8173 65.1604 27.8173 77C18.6857 77 9.72331 77 0.507233 77C0.422681 76.0631 0.169028 75.1261 0.169028 74.1892C0.169028 61.6681 -0.169177 49.2323 0.33813 36.7113C0.422681 31.1748 1.6064 25.3827 3.38197 20.1869C7.52498 8.43252 16.2337 2.04425 28.5782 0Z" fill="#5C4DD8"/>
</svg>
