<svg width="182" height="90" viewBox="0 0 182 90" fill="none" xmlns="http://www.w3.org/2000/svg">
<path d="M124.206 13.0149H60.3594V76.9497H124.206V13.0149Z" stroke="#222222" stroke-width="0.5699" stroke-linecap="round" stroke-linejoin="round"/>
<path d="M114.78 67.5C127.19 55.0736 127.19 34.9264 114.78 22.5C102.371 10.0736 82.2515 10.0736 69.8422 22.5C57.4328 34.9264 57.4328 55.0736 69.8422 67.5C82.2515 79.9264 102.371 79.9264 114.78 67.5Z" stroke="#222222" stroke-width="0.5699" stroke-linecap="round" stroke-linejoin="round"/>
<path d="M114.666 22.5693H69.9434V67.3532H114.666V22.5693Z" stroke="#222222" stroke-width="0.5699" stroke-linecap="round" stroke-linejoin="round"/>
<path d="M124.249 13.0149L60.3594 76.9918" stroke="#222222" stroke-width="0.5699" stroke-linecap="round" stroke-linejoin="round"/>
<path d="M60.3594 13.0149L124.249 76.9918" stroke="#222222" stroke-width="0.5699" stroke-linecap="round" stroke-linejoin="round"/>
<path d="M128.913 48.7075C127.82 49.8018 126.433 50.3911 124.794 50.3911C123.155 50.3911 121.768 49.8439 120.675 48.7075C119.582 47.6131 118.994 46.182 118.994 44.4984C118.994 42.8148 119.54 41.4259 120.675 40.2894C121.768 39.1951 123.155 38.6058 124.794 38.6058C126.433 38.6058 127.82 39.153 128.913 40.2894C130.006 41.3838 130.595 42.8148 130.595 44.4984C130.595 46.182 130.006 47.571 128.913 48.7075ZM124.794 35.1965C122.188 35.1965 119.96 36.0804 118.195 37.8903C116.388 39.7002 115.463 41.9309 115.463 44.4984C115.463 47.0659 116.388 49.2967 118.195 51.1066C119.96 52.8744 122.188 53.8004 124.794 53.8004C127.4 53.8004 129.628 52.9165 131.393 51.1066C133.201 49.2967 134.125 47.0659 134.125 44.4984C134.125 41.9309 133.201 39.7002 131.393 37.8903C129.586 36.1225 127.358 35.1965 124.794 35.1965Z" fill="#222222"/>
<path d="M148.92 48.7075C147.827 49.8018 146.44 50.3911 144.801 50.3911C143.162 50.3911 141.775 49.8439 140.682 48.7075C139.589 47.6131 139 46.182 139 44.4984C139 42.8148 139.547 41.4259 140.682 40.2894C141.775 39.1951 143.162 38.6058 144.801 38.6058C146.44 38.6058 147.827 39.153 148.92 40.2894C150.013 41.3838 150.601 42.8148 150.601 44.4984C150.559 46.182 150.013 47.571 148.92 48.7075ZM144.759 35.1965C142.153 35.1965 139.925 36.0804 138.16 37.8903C136.352 39.7002 135.428 41.9309 135.428 44.4984C135.428 47.0659 136.352 49.2967 138.16 51.1066C139.925 52.8744 142.153 53.8004 144.759 53.8004C147.365 53.8004 149.593 52.9165 151.358 51.1066C153.165 49.2967 154.09 47.0659 154.09 44.4984C154.09 41.9309 153.165 39.7002 151.358 37.8903C149.593 36.1225 147.365 35.1965 144.759 35.1965Z" fill="#222222"/>
<path d="M96.2969 52.5797C97.5159 53.4215 99.5755 53.6741 102.392 53.3373V50.2227C101.509 50.2648 100.71 50.2648 100.122 50.2227C99.4073 50.1806 98.8609 49.9701 98.5246 49.6334C98.1463 49.2546 97.9782 48.7074 97.9782 47.9077V39.0688H102.434V35.7016H97.9362V30.6929L94.4475 31.7451V35.7016H91.127V39.0688H94.4475V47.9077C94.4475 50.1385 95.078 51.7379 96.2969 52.5797Z" fill="#222222"/>
<path d="M5.16998 40.2472C6.26282 39.1108 7.69192 38.5216 9.37321 38.5216C11.0545 38.5216 12.4416 39.1108 13.5764 40.2472C14.6693 41.3416 15.2577 42.7727 15.2577 44.4983C15.2577 46.1819 14.7113 47.6551 13.5764 48.7915C12.4836 49.8859 11.0545 50.4751 9.37321 50.4751C7.69192 50.4751 6.30485 49.928 5.16998 48.7915C4.07714 47.613 3.48868 46.1819 3.48868 44.5404C3.48868 42.8147 4.07714 41.3837 5.16998 40.2472ZM10.0037 53.8003C12.3995 53.8003 14.5012 52.9164 16.1824 51.1065C17.9058 49.3387 18.7464 47.1079 18.7464 44.4983C18.7464 41.9309 17.8637 39.7001 16.1824 37.9323C14.4591 36.1224 12.3575 35.2385 10.0037 35.2385C7.35566 35.2385 5.29607 36.2487 3.86697 38.2269L3.53072 38.6899V35.7015H0V57.8409H3.48868V50.391L3.82494 50.8539C5.29607 52.7901 7.35566 53.8003 10.0037 53.8003Z" fill="#222222"/>
<path d="M27.1525 40.3316C28.2453 39.5319 29.5483 39.1531 30.9774 39.1952V35.365C28.4134 35.4071 26.7322 36.4593 25.8074 38.6059L25.3871 39.4056V35.6596H21.8984V50.0544H25.3871V44.4144C25.3871 42.5203 25.9756 41.1313 27.1525 40.3316Z" fill="#222222"/>
<path d="M111.007 40.3316C112.1 39.5319 113.403 39.1531 114.832 39.1952V35.365C112.268 35.4071 110.587 36.4593 109.662 38.6059L109.284 39.4056V35.6596H105.795V50.0544H109.284V44.4144C109.284 42.5203 109.872 41.1313 111.007 40.3316Z" fill="#222222"/>
<path d="M45.0588 48.7075C43.9659 49.8018 42.5789 50.3911 40.9396 50.3911C39.3004 50.3911 37.9133 49.8439 36.8204 48.7075C35.7276 47.6131 35.1392 46.182 35.1392 44.4984C35.1392 42.8148 35.6856 41.4259 36.8204 40.2894C37.9133 39.1951 39.3004 38.6058 40.9396 38.6058C42.5789 38.6058 43.9659 39.153 45.0588 40.2894C46.1516 41.3838 46.7401 42.8148 46.7401 44.4984C46.698 46.182 46.1516 47.571 45.0588 48.7075ZM40.8976 35.1965C38.2916 35.1965 36.0639 36.0804 34.2985 37.8903C32.4911 39.7002 31.5664 41.9309 31.5664 44.4984C31.5664 47.0659 32.4911 49.2967 34.2985 51.1066C36.0639 52.8744 38.2916 53.8004 40.8976 53.8004C43.5036 53.8004 45.7313 52.9165 47.4967 51.1066C49.3041 49.2967 50.2288 47.0659 50.2288 44.4984C50.2288 41.9309 49.3041 39.7002 47.4967 37.8903C45.7313 36.1225 43.5036 35.1965 40.8976 35.1965Z" fill="#222222"/>
<path d="M52.6245 53.2111C52.0361 53.7161 51.1954 53.9266 50.0605 53.8424V57.2096C52.3303 57.3359 54.0956 56.8729 55.2305 55.8206C56.4074 54.7263 57.0379 52.9164 57.0379 50.4752V42.5623H53.5492V50.4331C53.5072 51.7379 53.213 52.6639 52.6245 53.2111Z" fill="#222222"/>
<path d="M55.2727 34.7756C54.6422 34.7756 54.0958 34.9861 53.6335 35.4912C53.1711 35.9542 52.9609 36.4592 52.9609 37.0906C52.9609 37.7219 53.1711 38.2691 53.6335 38.7321C54.0958 39.1951 54.6422 39.4055 55.2727 39.4055C55.9032 39.4055 56.4076 39.1951 56.8699 38.7321C57.3323 38.2691 57.5845 37.7219 57.5845 37.0906C57.5845 36.4592 57.3743 35.9542 56.8699 35.4912C56.4076 34.9861 55.9032 34.7756 55.2727 34.7756Z" fill="#222222"/>
<path d="M63.7203 43.1936L63.7623 42.9831C64.0145 41.5941 64.687 40.4577 65.6537 39.6159C66.6625 38.8162 67.8814 38.3953 69.3526 38.3953C70.6976 38.3953 71.8745 38.8162 72.8413 39.5738C73.808 40.3735 74.3965 41.51 74.6907 42.941L74.7327 43.1515H63.7203V43.1936ZM78.2634 44.5404C78.2634 41.9729 77.4228 39.7422 75.7415 37.9323C74.1022 36.1224 71.9586 35.2385 69.3946 35.2385C66.6625 35.2385 64.3928 36.1224 62.7115 37.9323C60.9881 39.7001 60.1055 41.9308 60.1055 44.5404C60.1055 47.1921 60.9881 49.465 62.7535 51.2328C64.5189 52.9585 66.8727 53.8423 69.6888 53.8423C73.0514 53.8423 75.5734 52.6217 77.2967 50.1805L74.4385 48.4969C73.3457 49.928 71.7905 50.6856 69.7309 50.6856C68.1757 50.6856 66.8727 50.3068 65.8219 49.5492C64.7711 48.7915 64.0985 47.6972 63.8043 46.3082L63.7623 46.0978H78.1373C78.2214 45.4243 78.2634 44.9613 78.2634 44.5404Z" fill="#222222"/>
<path d="M174.854 38.3112C175.989 38.3112 176.872 38.69 177.544 39.4055C178.217 40.1211 178.511 41.1312 178.511 42.3939V45.9295H181.999V42.1414C181.999 39.9527 181.369 38.227 180.192 36.9222C178.973 35.6595 177.376 34.9861 175.4 34.9861C173.005 34.9861 171.197 35.9121 170.062 37.7219L169.894 37.9745L169.726 37.7219C168.633 35.87 167.036 34.9861 164.766 34.9861C162.581 34.9861 160.899 35.8279 159.764 37.5115L159.428 38.0587V35.4491H155.939V53.0848H159.428V43.2357C159.428 41.6784 159.806 40.4157 160.563 39.5739C161.32 38.7321 162.37 38.2691 163.589 38.2691C164.724 38.2691 165.607 38.6479 166.237 39.3635C166.868 40.079 167.162 41.0891 167.162 42.3939V53.1269H170.651V43.2357C170.651 41.6363 171.029 40.4157 171.744 39.5739C172.584 38.7321 173.593 38.3112 174.854 38.3112Z" fill="#222222"/>
<path d="M80.1973 44.4983C80.1973 47.0658 81.0799 49.2966 82.8453 51.1065C84.4846 52.748 86.5021 53.6319 88.898 53.7582V50.3068C87.5109 50.1805 86.334 49.6333 85.3672 48.6653C84.2744 47.5288 83.728 46.1399 83.728 44.4983C83.728 42.8568 84.2744 41.4679 85.3672 40.3314C86.334 39.3634 87.5529 38.8162 88.898 38.6899V35.2385C86.5021 35.3648 84.4846 36.2487 82.8453 37.8902C81.0799 39.658 80.1973 41.8888 80.1973 44.4983Z" fill="#222222"/>
</svg>
