<svg width="1280" height="940" viewBox="0 0 1280 940" fill="none" xmlns="http://www.w3.org/2000/svg">
<g opacity="0.5">
<mask id="mask0_758_648" style="mask-type:alpha" maskUnits="userSpaceOnUse" x="0" y="0" width="1280" height="940">
<rect width="1280" height="940" fill="white"/>
</mask>
<g mask="url(#mask0_758_648)">
<g opacity="0.8">
<path d="M-19.1202 -811.319C-726.475 -811.319 -1300 -237.794 -1300 469.561C-1300 1176.92 -726.475 1750.44 -19.1202 1750.44H-1.07156C706.283 1750.44 1279.81 1176.92 1279.81 469.561C1279.81 -237.794 706.283 -811.319 -1.07156 -811.319H-19.1202Z" stroke="#A8A6A6" stroke-width="0.6021"/>
<path d="M902.707 -440.169H-922.705V1379.29H902.707V-440.169Z" stroke="#A8A6A6" stroke-width="0.6021"/>
<path d="M1280 -811.319H-1299.81V1750.44H1280V-811.319Z" stroke="#A8A6A6" stroke-width="0.6021"/>
<path d="M-12.9754 -440.169C-515.458 -440.169 -922.705 -32.9218 -922.705 469.561C-922.705 972.044 -515.458 1379.29 -12.9754 1379.29H-7.21521C495.268 1379.29 902.515 972.044 902.515 469.561C902.515 -32.9218 495.268 -440.169 -7.21521 -440.169H-12.9754Z" stroke="#A8A6A6" stroke-width="0.6021"/>
<path d="M633.128 -171.359H-653.128V1110.67H633.128V-171.359Z" stroke="#A8A6A6" stroke-width="0.6021"/>
<path d="M-12.0158 -171.359C-366.077 -171.359 -653.128 115.692 -653.128 469.753C-653.128 823.814 -366.077 1110.86 -12.0158 1110.86H-7.98363C346.078 1110.86 633.128 823.814 633.128 469.753C633.128 115.692 346.078 -171.359 -7.98363 -171.359H-12.0158V-171.359Z" stroke="#A8A6A6" stroke-width="0.6021"/>
<path d="M-11.8237 21.416C-259.321 21.416 -459.969 222.063 -459.969 469.561C-459.969 717.058 -259.321 917.897 -11.8237 917.897H-8.36764C239.13 917.897 439.777 717.25 439.777 469.753C439.777 222.255 239.322 21.416 -8.36764 21.416H-11.8237Z" stroke="#A8A6A6" stroke-width="0.6021"/>
<path d="M308.059 151.405H-328.253V787.717H308.059V151.405Z" stroke="#A8A6A6" stroke-width="0.6021"/>
<path d="M439.969 21.416H-459.969V917.897H439.969V21.416Z" stroke="#A8A6A6" stroke-width="0.6021"/>
<path d="M-5.33001 787.7C170.365 785.079 310.669 640.524 308.047 464.829C305.425 289.134 160.871 148.83 -14.8241 151.452C-190.519 154.074 -330.823 298.628 -328.201 474.323C-325.579 650.018 -181.025 790.322 -5.33001 787.7Z" stroke="#A8A6A6" stroke-width="0.6021"/>
</g>
</g>
</g>
</svg>
