<svg width="18" height="19" viewBox="0 0 18 19" fill="none" xmlns="http://www.w3.org/2000/svg">
<path d="M8.76491 16.7441C4.63425 16.7441 1.28569 13.3955 1.28569 9.26487C1.28569 5.13421 4.63425 1.78564 8.76491 1.78564C12.8956 1.78564 16.2441 5.13421 16.2441 9.26487C16.2441 13.3955 12.8956 16.7441 8.76491 16.7441Z" stroke="white" stroke-width="0.8"/>
<path d="M11.4147 9.69168C11.1786 9.69168 10.9873 9.50034 10.9873 9.2643C10.9873 9.02826 11.1786 8.83691 11.4147 8.83691C11.6507 8.83691 11.842 9.02826 11.842 9.2643C11.842 9.50034 11.6507 9.69168 11.4147 9.69168Z" fill="white" stroke="white" stroke-width="0.8"/>
<path d="M6.15782 9.69168C5.92178 9.69168 5.73044 9.50034 5.73044 9.2643C5.73044 9.02826 5.92178 8.83691 6.15782 8.83691C6.39386 8.83691 6.58521 9.02826 6.58521 9.2643C6.58521 9.50034 6.39386 9.69168 6.15782 9.69168Z" fill="white" stroke="white" stroke-width="0.8"/>
<path d="M8.76475 9.69168C8.52872 9.69168 8.33737 9.50034 8.33737 9.2643C8.33737 9.02826 8.52872 8.83691 8.76475 8.83691C9.00079 8.83691 9.19214 9.02826 9.19214 9.2643C9.19214 9.50034 9.00079 9.69168 8.76475 9.69168Z" fill="white" stroke="white" stroke-width="0.8"/>
<path d="M8.0811 16.7446H16.2441V9.22266" stroke="white" stroke-width="0.8"/>
</svg>
