<svg width="128" height="129" viewBox="0 0 128 129" fill="none" xmlns="http://www.w3.org/2000/svg">
<path d="M31.498 93.4998L64.0131 126.236L95.8027 94.5476" fill="white"/>
<path d="M32.5103 94.6247C15.1089 77.1675 15.1541 48.9091 32.6113 31.5077C50.0685 14.1063 78.327 14.1516 95.7283 31.6087C113.13 49.0659 113.084 77.3244 95.6273 94.7258C78.1701 112.127 49.9116 112.082 32.5103 94.6247Z" fill="white" stroke="#5C4DD8" stroke-width="3"/>
<path d="M31.498 93.4998L64.0131 126.236L95.8027 94.5476" stroke="#5C4DD8" stroke-width="3"/>
<path d="M75.6763 51.5437H53.2246V74.0263H75.6763V51.5437Z" stroke="#222222" stroke-width="0.5699" stroke-linecap="round" stroke-linejoin="round"/>
<path d="M72.3619 70.7033C76.7256 66.3336 76.7256 59.2489 72.3619 54.8792C67.9982 50.5094 60.9232 50.5094 56.5594 54.8792C52.1957 59.2489 52.1957 66.3336 56.5594 70.7033C60.9232 75.0731 67.9982 75.0731 72.3619 70.7033Z" stroke="#222222" stroke-width="0.5699" stroke-linecap="round" stroke-linejoin="round"/>
<path d="M72.3203 54.9036H56.5938V70.6517H72.3203V54.9036Z" stroke="#222222" stroke-width="0.5699" stroke-linecap="round" stroke-linejoin="round"/>
<path d="M75.6911 51.5437L53.2246 74.0411" stroke="#222222" stroke-width="0.5699" stroke-linecap="round" stroke-linejoin="round"/>
<path d="M53.2246 51.5437L75.6911 74.0411" stroke="#222222" stroke-width="0.5699" stroke-linecap="round" stroke-linejoin="round"/>
<path d="M77.3314 64.0948C76.9471 64.4797 76.4593 64.6869 75.8829 64.6869C75.3064 64.6869 74.8187 64.4945 74.4344 64.0948C74.0501 63.71 73.8431 63.2068 73.8431 62.6148C73.8431 62.0227 74.0353 61.5343 74.4344 61.1347C74.8187 60.7498 75.3064 60.5426 75.8829 60.5426C76.4593 60.5426 76.9471 60.735 77.3314 61.1347C77.7157 61.5195 77.9226 62.0227 77.9226 62.6148C77.9226 63.2068 77.7157 63.6952 77.3314 64.0948ZM75.8829 59.3438C74.9665 59.3438 74.1831 59.6546 73.5623 60.291C72.9267 60.9274 72.6016 61.7119 72.6016 62.6148C72.6016 63.5176 72.9267 64.3021 73.5623 64.9385C74.1831 65.5601 74.9665 65.8858 75.8829 65.8858C76.7993 65.8858 77.5826 65.5749 78.2034 64.9385C78.839 64.3021 79.1641 63.5176 79.1641 62.6148C79.1641 61.7119 78.839 60.9274 78.2034 60.291C77.5678 59.6694 76.7845 59.3438 75.8829 59.3438Z" fill="#222222"/>
<path d="M84.3676 64.0948C83.9833 64.4797 83.4956 64.6869 82.9191 64.6869C82.3427 64.6869 81.8549 64.4945 81.4706 64.0948C81.0863 63.71 80.8794 63.2068 80.8794 62.6148C80.8794 62.0227 81.0715 61.5343 81.4706 61.1347C81.8549 60.7498 82.3427 60.5426 82.9191 60.5426C83.4956 60.5426 83.9833 60.735 84.3676 61.1347C84.7519 61.5195 84.9588 62.0227 84.9588 62.6148C84.9441 63.2068 84.7519 63.6952 84.3676 64.0948ZM82.9043 59.3438C81.9879 59.3438 81.2046 59.6546 80.5838 60.291C79.9482 60.9274 79.623 61.7119 79.623 62.6148C79.623 63.5176 79.9482 64.3021 80.5838 64.9385C81.2046 65.5601 81.9879 65.8858 82.9043 65.8858C83.8207 65.8858 84.6041 65.5749 85.2249 64.9385C85.8605 64.3021 86.1856 63.5176 86.1856 62.6148C86.1856 61.7119 85.8605 60.9274 85.2249 60.291C84.6041 59.6694 83.8207 59.3438 82.9043 59.3438Z" fill="#222222"/>
<path d="M65.8629 65.4565C66.2916 65.7525 67.0158 65.8413 68.0061 65.7229V64.6276C67.6957 64.6424 67.4149 64.6424 67.208 64.6276C66.9567 64.6128 66.7646 64.5388 66.6463 64.4204C66.5133 64.2872 66.4542 64.0948 66.4542 63.8136V60.7054H68.0209V59.5213H66.4394V57.76L65.2126 58.13V59.5213H64.0449V60.7054H65.2126V63.8136C65.2126 64.598 65.4343 65.1605 65.8629 65.4565Z" fill="#222222"/>
<path d="M33.818 61.1197C34.2023 60.7201 34.7049 60.5129 35.2961 60.5129C35.8873 60.5129 36.3751 60.7201 36.7741 61.1197C37.1584 61.5045 37.3654 62.0078 37.3654 62.6146C37.3654 63.2066 37.1732 63.7247 36.7741 64.1243C36.3898 64.5091 35.8873 64.7163 35.2961 64.7163C34.7049 64.7163 34.2171 64.5239 33.818 64.1243C33.4337 63.7099 33.2268 63.2066 33.2268 62.6294C33.2268 62.0226 33.4337 61.5193 33.818 61.1197ZM35.5178 65.8856C36.3603 65.8856 37.0993 65.5748 37.6905 64.9383C38.2965 64.3167 38.5921 63.5323 38.5921 62.6146C38.5921 61.7117 38.2818 60.9273 37.6905 60.3057C37.0845 59.6692 36.3455 59.3584 35.5178 59.3584C34.5866 59.3584 33.8624 59.7136 33.3598 60.4093L33.2416 60.5721V59.5212H32V67.3065H33.2268V64.6867L33.345 64.8495C33.8624 65.5304 34.5866 65.8856 35.5178 65.8856Z" fill="#222222"/>
<path d="M41.5487 61.1493C41.933 60.8681 42.3912 60.7349 42.8938 60.7497V59.4028C41.9922 59.4176 41.4009 59.7877 41.0758 60.5425L40.928 60.8237V59.5064H39.7012V64.5684H40.928V62.585C40.928 61.919 41.1349 61.4306 41.5487 61.1493Z" fill="#222222"/>
<path d="M71.0359 61.1493C71.4202 60.8681 71.8784 60.7349 72.381 60.7497V59.4028C71.4793 59.4176 70.8881 59.7877 70.5629 60.5425L70.4299 60.8237V59.5064H69.2031V64.5684H70.4299V62.585C70.4299 61.919 70.6368 61.4306 71.0359 61.1493Z" fill="#222222"/>
<path d="M47.8442 64.0948C47.4599 64.4797 46.9721 64.6869 46.3957 64.6869C45.8192 64.6869 45.3315 64.4945 44.9472 64.0948C44.5629 63.71 44.356 63.2068 44.356 62.6148C44.356 62.0227 44.5481 61.5343 44.9472 61.1347C45.3315 60.7498 45.8192 60.5426 46.3957 60.5426C46.9721 60.5426 47.4599 60.735 47.8442 61.1347C48.2285 61.5195 48.4354 62.0227 48.4354 62.6148C48.4206 63.2068 48.2285 63.6952 47.8442 64.0948ZM46.3809 59.3438C45.4645 59.3438 44.6811 59.6546 44.0603 60.291C43.4248 60.9274 43.0996 61.7119 43.0996 62.6148C43.0996 63.5176 43.4248 64.3021 44.0603 64.9385C44.6811 65.5601 45.4645 65.8858 46.3809 65.8858C47.2973 65.8858 48.0807 65.5749 48.7015 64.9385C49.337 64.3021 49.6622 63.5176 49.6622 62.6148C49.6622 61.7119 49.337 60.9274 48.7015 60.291C48.0807 59.6694 47.2973 59.3438 46.3809 59.3438Z" fill="#222222"/>
<path d="M50.5051 65.6785C50.2982 65.8561 50.0026 65.9301 49.6035 65.9005V67.0846C50.4017 67.129 51.0225 66.9661 51.4215 66.5961C51.8354 66.2113 52.0571 65.5749 52.0571 64.7164V61.9338H50.8303V64.7016C50.8155 65.1604 50.7121 65.4861 50.5051 65.6785Z" fill="#222222"/>
<path d="M51.436 59.1956C51.2143 59.1956 51.0221 59.2696 50.8595 59.4472C50.6969 59.61 50.623 59.7876 50.623 60.0096C50.623 60.2316 50.6969 60.424 50.8595 60.5868C51.0221 60.7497 51.2143 60.8237 51.436 60.8237C51.6577 60.8237 51.8351 60.7497 51.9976 60.5868C52.1602 60.424 52.2489 60.2316 52.2489 60.0096C52.2489 59.7876 52.175 59.61 51.9976 59.4472C51.8351 59.2696 51.6577 59.1956 51.436 59.1956Z" fill="#222222"/>
<path d="M54.4079 62.1558L54.4226 62.0818C54.5113 61.5933 54.7478 61.1937 55.0878 60.8977C55.4425 60.6165 55.8711 60.4685 56.3885 60.4685C56.8614 60.4685 57.2753 60.6165 57.6152 60.8829C57.9552 61.1641 58.1621 61.5637 58.2656 62.067L58.2804 62.141H54.4079V62.1558ZM59.5219 62.6294C59.5219 61.7265 59.2263 60.9421 58.6351 60.3057C58.0587 59.6692 57.3048 59.3584 56.4032 59.3584C55.4425 59.3584 54.6443 59.6692 54.0531 60.3057C53.4471 60.9273 53.1367 61.7117 53.1367 62.6294C53.1367 63.5619 53.4471 64.3611 54.0679 64.9827C54.6887 65.5896 55.5164 65.9004 56.5067 65.9004C57.6891 65.9004 58.576 65.4712 59.182 64.6127L58.1769 64.0207C57.7926 64.5239 57.2457 64.7903 56.5215 64.7903C55.9746 64.7903 55.5164 64.6571 55.1469 64.3907C54.7774 64.1243 54.5409 63.7395 54.4374 63.251L54.4226 63.177H59.4776C59.5072 62.9402 59.5219 62.7774 59.5219 62.6294Z" fill="#222222"/>
<path d="M93.4872 60.439C93.8863 60.439 94.1967 60.5723 94.4332 60.8239C94.6697 61.0755 94.7731 61.4307 94.7731 61.8747V63.118H95.9999V61.7859C95.9999 61.0163 95.7782 60.4094 95.3643 59.9506C94.9357 59.5066 94.374 59.2698 93.6794 59.2698C92.8369 59.2698 92.2013 59.5954 91.8022 60.2318L91.7431 60.3206L91.684 60.2318C91.2997 59.5806 90.738 59.2698 89.9399 59.2698C89.1713 59.2698 88.58 59.5658 88.181 60.1578L88.0627 60.3502V59.4326H86.8359V65.6342H88.0627V62.1708C88.0627 61.6231 88.1958 61.1791 88.4618 60.8831C88.7279 60.5871 89.0974 60.4242 89.526 60.4242C89.9251 60.4242 90.2355 60.5575 90.4572 60.8091C90.6789 61.0607 90.7824 61.4159 90.7824 61.8747V65.649H92.0091V62.1708C92.0091 61.6083 92.1422 61.1791 92.3934 60.8831C92.6891 60.5871 93.0438 60.439 93.4872 60.439Z" fill="#222222"/>
<path d="M60.2012 62.6146C60.2012 63.5175 60.5116 64.3019 61.1324 64.9383C61.7088 65.5156 62.4183 65.8264 63.2608 65.8708V64.6571C62.773 64.6127 62.3591 64.4203 62.0192 64.0799C61.6349 63.6803 61.4427 63.1918 61.4427 62.6146C61.4427 62.0374 61.6349 61.5489 62.0192 61.1493C62.3591 60.8089 62.7878 60.6165 63.2608 60.5721V59.3584C62.4183 59.4028 61.7088 59.7136 61.1324 60.2909C60.5116 60.9125 60.2012 61.6969 60.2012 62.6146Z" fill="#222222"/>
</svg>
