<svg width="30" height="30" viewBox="0 0 30 30" fill="none" xmlns="http://www.w3.org/2000/svg">
<path d="M14.6088 27.0736C7.7244 27.0736 2.14346 21.4926 2.14346 14.6082C2.14346 7.72376 7.72441 2.14282 14.6088 2.14282C21.4933 2.14282 27.0742 7.72376 27.0742 14.6082C27.0742 21.4926 21.4933 27.0736 14.6088 27.0736Z" stroke="#5C4DD8" stroke-width="0.8"/>
<path d="M13.4692 27.0742L27.0742 27.0742L27.0742 14.5376" stroke="#5C4DD8" stroke-width="0.8"/>
<path d="M19.2724 11.2421C19.2228 11.4758 19.1732 11.7094 19.1308 11.9431C18.8404 13.4656 18.5501 14.9952 18.2597 16.5177C18.0473 17.6295 17.8349 18.7484 17.6224 19.8601C17.587 20.0443 17.5233 20.193 17.3392 20.2638C17.1763 20.3275 17.0347 20.278 16.9001 20.1859C16.0645 19.6194 15.2289 19.0529 14.3933 18.4793C14.2871 18.4085 14.2233 18.4085 14.1242 18.4864C13.7135 18.7909 13.2886 19.0883 12.8708 19.3928C12.5521 19.6265 12.2405 19.5132 12.1343 19.1237C11.9077 18.2597 11.6811 17.4029 11.4545 16.539C11.4333 16.4682 11.4049 16.4327 11.3412 16.4115C10.5268 16.0999 9.71247 15.7883 8.90519 15.4768C8.64318 15.3776 8.52988 15.1935 8.58653 14.9527C8.62902 14.7899 8.74232 14.6978 8.89103 14.6341C9.69123 14.3154 10.4914 13.9967 11.2987 13.6781C13.7347 12.7079 16.1707 11.7378 18.6067 10.7747C18.713 10.7322 18.8333 10.7039 18.9396 10.718C19.1237 10.7322 19.2228 10.8738 19.2866 11.0367C19.2724 11.1146 19.2724 11.1783 19.2724 11.2421ZM13.5081 16.8718C14.6411 17.6366 15.7529 18.3943 16.886 19.1662C17.3179 16.9072 17.7428 14.6553 18.1748 12.4105C18.1677 12.4105 18.1606 12.4034 18.1535 12.4034C16.6098 13.8834 15.066 15.3776 13.5081 16.8718ZM12.4034 16.8222C12.4742 16.7302 12.5309 16.6381 12.6088 16.5602C14.0321 15.1935 15.4484 13.8268 16.8718 12.453C16.9001 12.4247 16.9355 12.3963 16.9709 12.368C16.9638 12.3609 16.9568 12.3538 16.9568 12.3468C14.6978 13.2461 12.4388 14.1454 10.1586 15.0519C10.2011 15.0731 10.2294 15.0802 10.2507 15.0873C10.7959 15.2926 11.3341 15.5051 11.8794 15.7104C12.0564 15.7742 12.1697 15.8946 12.2122 16.0787C12.2689 16.3407 12.3397 16.5885 12.4034 16.8222ZM12.8141 18.3943C13.0478 18.2243 13.2744 18.0615 13.5081 17.8986C13.1682 17.6649 12.8425 17.4454 12.5026 17.2188C12.6088 17.6083 12.7079 17.9907 12.8141 18.3943Z" fill="#5C4DD8"/>
</svg>
