<svg width="30" height="30" viewBox="0 0 30 30" fill="none" xmlns="http://www.w3.org/2000/svg">
<path d="M14.6088 27.0736C7.7244 27.0736 2.14346 21.4926 2.14346 14.6082C2.14346 7.72376 7.72441 2.14282 14.6088 2.14282C21.4933 2.14282 27.0742 7.72376 27.0742 14.6082C27.0742 21.4926 21.4933 27.0736 14.6088 27.0736Z" stroke="#5C4DD8" stroke-width="0.8"/>
<path d="M13.4691 27.0742L27.0742 27.0742L27.0742 14.5376" stroke="#5C4DD8" stroke-width="0.8"/>
<path d="M12.8788 13.0855C13.5726 14.3338 14.5241 15.2899 15.7929 15.9884C15.9217 15.8448 16.0506 15.6962 16.1893 15.5574C16.7444 15.0076 17.4184 15.0026 17.9685 15.5525C18.37 15.9538 18.7714 16.3501 19.1728 16.7563C19.7031 17.2963 19.7081 17.97 19.1827 18.5099C18.9002 18.7973 18.6029 19.0697 18.3303 19.367C17.7951 19.9515 17.126 20.0853 16.3826 19.9565C15.2973 19.7732 14.3655 19.2431 13.4883 18.614C11.9718 17.5241 10.7031 16.1965 9.73668 14.5964C9.34021 13.9276 9.02302 13.2291 8.89913 12.4563C8.78018 11.7182 8.91399 11.0594 9.49384 10.5293C9.78624 10.2618 10.0539 9.9695 10.3364 9.69209C10.8865 9.15212 11.5605 9.15212 12.1056 9.69209C12.512 10.0933 12.9184 10.4996 13.3198 10.9107C13.8452 11.4408 13.8452 12.1145 13.3248 12.6495C13.186 12.7882 13.0374 12.9319 12.8788 13.0855ZM11.1987 10.5045C10.9013 10.8018 10.6089 11.1188 10.2967 11.4061C10.0737 11.6142 10.0241 11.8569 10.0489 12.1393C10.1034 12.6793 10.3066 13.1746 10.5643 13.6403C11.5506 15.4336 12.9432 16.8504 14.648 17.9601C15.213 18.3267 15.8127 18.6338 16.4817 18.7675C16.7494 18.822 17.0517 18.8963 17.2648 18.7081C17.6464 18.3712 17.9834 17.9799 18.3055 17.643C17.8942 17.2319 17.4729 16.8108 17.0418 16.3748C16.8782 16.5383 16.6998 16.7216 16.5164 16.9049C16.1447 17.2764 15.7631 17.321 15.2973 17.0684C13.7758 16.251 12.6062 15.0819 11.7884 13.561C11.5357 13.0855 11.5803 12.709 11.9619 12.3275C12.1403 12.1442 12.3286 11.9709 12.5021 11.8024C12.061 11.3615 11.6447 10.9454 11.1987 10.5045Z" fill="#5C4DD8"/>
</svg>
